<svg width="60" height="60" viewBox="0 0 60 60" fill="none" xmlns="http://www.w3.org/2000/svg">
<path opacity="0.5" d="M32.374 23.1326L32.4826 24.0064L33.1773 23.4654L48.3493 11.6507L36.5346 26.8227L35.9936 27.5174L36.8674 27.6261L55.9499 30L36.8674 32.374L35.9936 32.4826L36.5346 33.1773L48.3493 48.3493L33.1773 36.5346L32.4826 35.9936L32.374 36.8674L30 55.9499L27.6261 36.8674L27.5174 35.9936L26.8227 36.5346L11.6507 48.3493L23.4654 33.1773L24.0064 32.4826L23.1326 32.374L4.05013 30L23.1326 27.6261L24.0064 27.5174L23.4654 26.8227L11.6507 11.6507L26.8227 23.4654L27.5174 24.0064L27.6261 23.1326L30 4.05013L32.374 23.1326Z" stroke="#FBF4EE"/>
</svg>
