<svg width="131" height="131" viewBox="0 0 131 131" fill="none" xmlns="http://www.w3.org/2000/svg">
<path fill-rule="evenodd" clip-rule="evenodd" d="M65.5 128C99.4655 128 127 100.466 127 66.5C127 32.5345 99.4655 5 65.5 5C31.5345 5 4 32.5345 4 66.5C4 100.466 31.5345 128 65.5 128ZM65.5 129C100.018 129 128 101.018 128 66.5C128 31.9822 100.018 4 65.5 4C30.9822 4 3 31.9822 3 66.5C3 101.018 30.9822 129 65.5 129Z" fill="#FBF4EE"/>
<path fill-rule="evenodd" clip-rule="evenodd" d="M85.3853 43C82.8472 43 80.7705 45.0701 80.7705 47.6049C80.7705 50.1609 82.8262 52.2099 85.3853 52.2099C87.9234 52.2099 90 50.1398 90 47.6049C90 45.0701 87.9234 43 85.3853 43ZM52.6207 45.6404V50.013L41 90H49.2436L52.5158 78.6777H64.577L67.8283 90H76.9529L63.6961 45.6404H52.6207ZM58.494 53.5196L62.9409 70.9254H54.0261L58.494 53.5196ZM80.8754 56.2445V90H89.7902V56.2445H80.8754Z" fill="#FBF4EE"/>
<path fill-rule="evenodd" clip-rule="evenodd" d="M84.0677 8.97132C70.3809 4.47569 55.5278 5.0985 42.2653 10.7241C29.0029 16.3498 18.2319 26.5961 11.9516 39.5614C5.6713 52.5266 4.30823 67.3301 8.1154 81.2242C11.9226 95.1183 20.6414 107.159 32.6536 115.112C44.6657 123.065 59.1554 126.39 73.433 124.469C87.7106 122.548 100.807 115.512 110.29 104.668C119.773 93.8233 125 79.9063 125 65.5H131C131 81.359 125.246 96.6794 114.807 108.618C104.367 120.556 89.9503 128.301 74.2329 130.415C58.5156 132.53 42.5648 128.87 29.3413 120.115C16.1178 111.36 6.51981 98.105 2.32872 82.8099C-1.86238 67.5147 -0.361857 51.2184 6.55176 36.9457C13.4654 22.6731 25.3225 11.3934 39.9223 5.20051C54.5222 -0.992413 70.873 -1.67802 85.94 3.27095C101.007 8.21991 113.767 18.4673 121.851 32.1111L116.689 35.1696C109.345 22.7757 97.7545 13.4669 84.0677 8.97132Z" fill="#FBF4EE"/>
</svg>
