<svg width="47" height="47" viewBox="0 0 47 47" fill="none" xmlns="http://www.w3.org/2000/svg">
<path d="M21.0694 23.1692C22.4497 22.4957 23.1701 21.4766 23.1701 19.8903C23.1701 16.7621 20.8872 16 18.2526 16H11V31.7031H18.4566C21.2517 31.7031 23.8776 30.334 23.8776 27.1437C23.8776 25.172 22.9618 23.7142 21.0694 23.1692ZM14.3811 18.6807H17.5538C18.7734 18.6807 19.8715 19.0307 19.8715 20.4752C19.8715 21.8089 19.0165 22.3451 17.8099 22.3451H14.3811V18.6807ZM17.9965 29.0357H14.3811V24.7112H18.066C19.5547 24.7112 20.4965 25.3448 20.4965 26.9532C20.4965 28.5395 19.3724 29.0357 17.9965 29.0357ZM33.5564 18.3705H27.3194V16.8241H33.5564V18.3705ZM36 26.1822C36 22.8192 34.0729 20.0144 30.579 20.0144C27.1849 20.0144 24.8802 22.6198 24.8802 26.0316C24.8802 29.5719 27.0634 32 30.579 32C33.2396 32 34.9627 30.7771 35.7917 28.1761H33.092C32.8012 29.1465 31.6033 29.6605 30.6745 29.6605C28.8819 29.6605 27.9401 28.5882 27.9401 26.7671H35.974C35.987 26.581 36 26.3816 36 26.1822ZM27.9444 24.7998C28.0443 23.3066 29.0165 22.3716 30.4835 22.3716C32.02 22.3716 32.7925 23.2933 32.9227 24.7998H27.9444Z" fill="#976F46"/>
<path fill-rule="evenodd" clip-rule="evenodd" d="M35 4H12C7.58172 4 4 7.58172 4 12V35C4 39.4183 7.58172 43 12 43H35C39.4183 43 43 39.4183 43 35V12C43 7.58172 39.4183 4 35 4ZM12 0C5.37258 0 0 5.37258 0 12V35C0 41.6274 5.37258 47 12 47H35C41.6274 47 47 41.6274 47 35V12C47 5.37258 41.6274 0 35 0H12Z" fill="#976F46"/>
</svg>
