<svg width="131" height="131" viewBox="0 0 131 131" fill="none" xmlns="http://www.w3.org/2000/svg">
<path fill-rule="evenodd" clip-rule="evenodd" d="M54.3793 32C47.5424 32 42 37.696 42 44.7224C42 49.1716 44.2222 53.0874 47.5882 55.3613C44.2222 57.6353 42 61.5511 42 66.0003C42 70.4492 44.222 74.3649 47.5878 76.6389C44.222 78.913 42 82.8285 42 87.2775C42 94.3213 47.6262 100 54.446 100C61.3402 100 67.0275 94.2594 67.0275 87.1394V75.4169C69.226 77.4709 72.1467 78.7228 75.3519 78.7228H75.6207C82.4576 78.7228 88 73.0267 88 66.0003C88 61.5511 85.7778 57.6353 82.4117 55.3613C85.7778 53.0874 88 49.1716 88 44.7224C88 37.696 82.4576 32 75.6207 32H54.3793ZM54.3793 57.4451H62.9725V74.5551H54.3793L54.3261 74.5553C49.7531 74.5258 46.055 70.7069 46.055 66.0003C46.055 61.2755 49.7819 57.4451 54.3793 57.4451ZM75.3519 74.5554C70.7544 74.5554 67.0275 70.7251 67.0275 66.0003C67.0275 61.2755 70.7544 57.4451 75.3519 57.4451H75.6207C80.2181 57.4451 83.945 61.2755 83.945 66.0003C83.945 70.7251 80.2181 74.5554 75.6207 74.5554H75.3519ZM54.3261 78.7226L54.3793 78.7228H62.9725V87.1394C62.9725 91.9231 59.1348 95.8326 54.446 95.8326C49.8317 95.8326 46.055 91.985 46.055 87.2775C46.055 82.5709 49.7531 78.752 54.3261 78.7226ZM46.055 44.7224C46.055 39.9976 49.7819 36.1674 54.3793 36.1674H62.9725V53.2775H54.3793C49.7819 53.2775 46.055 49.4473 46.055 44.7224ZM75.6207 53.2775H67.0275V36.1674H75.6207C80.2181 36.1674 83.945 39.9976 83.945 44.7224C83.945 49.4473 80.2181 53.2775 75.6207 53.2775Z" fill="#FBF4EE"/>
<path fill-rule="evenodd" clip-rule="evenodd" d="M65.5 124.712C98.2019 124.712 124.712 98.2019 124.712 65.5C124.712 32.7981 98.2019 6.288 65.5 6.288C32.7981 6.288 6.288 32.7981 6.288 65.5C6.288 98.2019 32.7981 124.712 65.5 124.712ZM65.5 131C101.675 131 131 101.675 131 65.5C131 29.3253 101.675 0 65.5 0C29.3253 0 0 29.3253 0 65.5C0 101.675 29.3253 131 65.5 131Z" fill="#FBF4EE"/>
</svg>
