<svg width="131" height="131" viewBox="0 0 131 131" fill="none" xmlns="http://www.w3.org/2000/svg">
<path fill-rule="evenodd" clip-rule="evenodd" d="M65.5 127C99.4655 127 127 99.4655 127 65.5C127 31.5345 99.4655 4 65.5 4C31.5345 4 4 31.5345 4 65.5C4 99.4655 31.5345 127 65.5 127ZM65.5 128C100.018 128 128 100.018 128 65.5C128 30.9822 100.018 3 65.5 3C30.9822 3 3 30.9822 3 65.5C3 100.018 30.9822 128 65.5 128Z" fill="#FBF4EE"/>
<path fill-rule="evenodd" clip-rule="evenodd" d="M65.5 6C53.732 6 42.2283 9.48961 32.4436 16.0276C22.6589 22.5655 15.0326 31.8581 10.5292 42.7303C6.02578 53.6025 4.84748 65.566 7.14331 77.1079C9.43913 88.6497 15.106 99.2516 23.4272 107.573C31.7484 115.894 42.3503 121.561 53.8922 123.857C65.434 126.153 77.3975 124.974 88.2697 120.471C99.1419 115.967 108.435 108.341 114.972 98.5564C121.51 88.7717 125 77.268 125 65.5H131C131 78.4547 127.159 91.1184 119.961 101.89C112.764 112.661 102.534 121.057 90.5658 126.014C78.5972 130.972 65.4274 132.269 52.7216 129.741C40.0159 127.214 28.3449 120.976 19.1845 111.815C10.0242 102.655 3.78593 90.9842 1.25859 78.2784C-1.26874 65.5727 0.0283799 52.4028 4.98592 40.4342C9.94346 28.4657 18.3388 18.236 29.1102 11.0387C39.8816 3.84151 52.5454 0 65.5 0V6Z" fill="#FBF4EE"/>
<path fill-rule="evenodd" clip-rule="evenodd" d="M78.5649 61.4206C77.9325 61.1255 77.0894 60.9991 76.0777 60.9991C70.6401 60.9991 66.8464 65.1723 66.8464 72.1273C66.8464 80.0518 70.7244 83.2553 75.5721 83.2553C76.6258 83.2553 77.7218 83.1289 78.5649 82.7496V61.4206ZM76.3306 54.5498H76.3306C77.2158 54.5498 77.7218 54.5498 78.5647 54.6341V43.4216C78.5647 43.1266 78.7754 43.0002 78.986 43.0002H85.8147C86.1519 43.0002 86.2362 43.1266 86.2362 43.3373V82.7497V82.7498C86.2362 83.9299 86.2362 85.4053 86.4469 87.007C86.4469 87.2961 86.366 87.3424 86.0851 87.503L86.0676 87.513C82.4425 89.2411 78.6068 89.9999 75.0239 89.9999C65.7083 89.9999 59.0482 84.2252 59.0482 72.4646C59.0062 62.3901 65.6662 54.5498 76.3306 54.5498ZM51.5876 88.8197C51.5876 89.241 51.5033 89.3676 51.0395 89.3676H44.5481C44.1266 89.3676 44 89.1568 44 88.8197V43.5481C44 43.1266 44.2107 43 44.5481 43H51.0816C51.4188 43 51.5876 43.1264 51.5876 43.5059V88.8197Z" fill="#FBF4EE"/>
</svg>
