<svg width="866" height="395" viewBox="0 0 866 395" fill="none" xmlns="http://www.w3.org/2000/svg">
<path d="M498.661 339.705C397.331 354.841 298.247 352.581 219.978 336.707C180.842 328.77 146.936 317.434 120.563 303.188C94.192 288.943 75.3881 271.809 66.3651 252.267C57.3421 232.726 58.9179 212.548 69.5797 192.771C80.2425 172.992 99.9799 153.644 127.209 135.793C181.665 100.092 266.009 70.4317 367.339 55.2951C468.67 40.1586 567.753 42.4192 646.023 58.2932C685.159 66.2305 719.064 77.5658 745.437 91.8124C771.808 106.057 790.612 123.191 799.635 142.733C808.658 162.274 807.082 182.452 796.421 202.229C785.758 222.008 766.02 241.356 738.792 259.207C684.336 294.908 599.991 324.568 498.661 339.705Z" stroke="#514D4D"/>
<path d="M413.867 339.449C308.508 327.402 215.533 300.489 150.386 266.732C117.811 249.852 92.2176 231.274 75.5091 212.009C58.8002 192.743 51.0132 172.837 53.931 153.273C56.8489 133.708 70.2129 116.221 92.0117 101.358C113.81 86.4955 143.993 74.2947 180.427 65.3055C253.289 47.3282 351.04 42.2224 456.399 54.2691C561.758 66.3157 654.733 93.2289 719.88 126.986C752.455 143.866 778.048 162.444 794.757 181.709C811.466 200.975 819.253 220.881 816.335 240.445C813.417 260.01 800.053 277.497 778.254 292.36C756.456 307.223 726.272 319.423 689.839 328.413C616.977 346.39 519.226 351.496 413.867 339.449Z" stroke="#FBF4EE"/>
</svg>
