<svg width="47" height="47" viewBox="0 0 47 47" fill="none" xmlns="http://www.w3.org/2000/svg">
<path d="M31.3359 23.5V23.498C31.3359 19.1728 27.8292 15.666 23.5039 15.666C19.1787 15.666 15.6719 19.1728 15.6719 23.498C15.6719 27.8233 19.1787 31.3301 23.5039 31.3301C25.6656 31.3301 27.6236 30.4529 29.0412 29.0372C30.4568 27.6647 31.3359 25.7439 31.3359 23.6175C31.3359 23.5764 31.3359 23.5352 31.334 23.4941V23.5H31.3359ZM35.5652 23.5C35.5417 30.1161 30.1729 35.4713 23.5529 35.4713C16.9191 35.4713 11.5405 30.0926 11.5405 23.4589C11.5405 16.8252 16.9191 11.4465 23.5529 11.4465C26.8697 11.4465 29.8733 12.7917 32.0467 14.965C34.2181 17.0797 35.5672 20.0304 35.5672 23.2983C35.5672 23.3688 35.5672 23.4413 35.5652 23.5117V23.502V23.5ZM38.8684 10.957V10.9609C38.8684 12.5175 37.6055 13.7805 36.0489 13.7805C34.4922 13.7805 33.2293 12.5175 33.2293 10.9609C33.2293 9.40431 34.4922 8.14139 36.0489 8.14139C36.8282 8.14139 37.533 8.45663 38.0421 8.96767C38.5434 9.45913 38.8547 10.1444 38.8547 10.9022V10.959V10.957H38.8684ZM23.5176 4.22146L21.1778 4.2058C19.7602 4.19536 18.684 4.19536 17.949 4.2058C17.2141 4.21624 16.2299 4.24692 14.9964 4.29783C13.8509 4.33699 12.7642 4.45055 11.7011 4.63069L11.844 4.61111C11.0118 4.74817 10.2737 4.94397 9.56682 5.20438L9.65102 5.17697C7.60686 6.00912 6.015 7.59902 5.20242 9.59032L5.18284 9.64318C4.94984 10.2658 4.75404 11.004 4.62677 11.7637L4.61698 11.8362C4.45642 12.7545 4.34286 13.8412 4.30566 14.9474L4.3037 14.9885C4.25279 16.2234 4.22212 17.2076 4.21167 17.9412C4.20123 18.6748 4.20123 19.7511 4.21167 21.17C4.22212 22.5889 4.22734 23.3688 4.22734 23.5098C4.22734 23.6508 4.22212 24.4307 4.21167 25.8496C4.20123 27.2685 4.20123 28.3448 4.21167 29.0784C4.22212 29.812 4.25279 30.7962 4.3037 32.031C4.34286 33.1765 4.45642 34.2632 4.63656 35.3264L4.61698 35.1834C4.75404 36.0156 4.94984 36.7537 5.21026 37.4606L5.18284 37.3764C6.015 39.4206 7.6049 41.0124 9.59619 41.825L9.64906 41.8446C10.2717 42.0776 11.0099 42.2734 11.7696 42.4006L11.842 42.4104C12.7603 42.571 13.847 42.6846 14.9513 42.7218L14.9925 42.7237C16.2273 42.7746 17.2115 42.8053 17.9451 42.8157C18.6787 42.8262 19.755 42.8262 21.1739 42.8157L23.5 42.7687L25.8398 42.7844C27.2574 42.7949 28.3337 42.7949 29.0686 42.7844C29.8035 42.774 30.7877 42.7433 32.0212 42.6924C33.1667 42.6532 34.2534 42.5397 35.3166 42.3595L35.1736 42.3791C36.0058 42.242 36.744 42.0462 37.4508 41.7858L37.3666 41.8132C39.4108 40.9811 41.0026 39.3912 41.8152 37.3999L41.8348 37.347C42.0678 36.7244 42.2636 35.9862 42.3909 35.2265L42.4006 35.1541C42.5612 34.2358 42.6748 33.1491 42.712 32.0447L42.7139 32.0036C42.7648 30.7688 42.7955 29.7845 42.8059 29.0509C42.8164 28.3173 42.8164 27.2411 42.8059 25.8222C42.7955 24.4033 42.7903 23.6234 42.7903 23.4824C42.7903 23.3414 42.7955 22.5615 42.8059 21.1426C42.8164 19.7237 42.8164 18.6474 42.8059 17.9138C42.7955 17.1802 42.7648 16.196 42.7139 14.9611C42.6748 13.8157 42.5612 12.729 42.3811 11.6658L42.4006 11.8087C42.2636 10.9766 42.0678 10.2384 41.8074 9.53158L41.8348 9.61577C41.0026 7.57161 39.4127 5.97975 37.4214 5.16718L37.3686 5.1476C36.7459 4.9146 36.0077 4.7188 35.248 4.59153L35.1756 4.58174C34.2573 4.42118 33.1706 4.30762 32.0663 4.27041L32.0252 4.26846C30.7903 4.21755 29.8061 4.18687 29.0725 4.17643C28.3389 4.16599 27.2626 4.16599 25.8437 4.17643L23.5176 4.22146ZM47 23.5C47 28.1705 46.9478 31.4032 46.8434 33.198C46.8531 33.3958 46.861 33.6268 46.861 33.8579C46.861 41.0379 41.0398 46.859 33.8598 46.859C33.6268 46.859 33.3958 46.8531 33.1667 46.8414L33.198 46.8434C31.4032 46.9478 28.1705 47 23.5 47C18.8295 47 15.5968 46.9478 13.802 46.8434C13.6042 46.8531 13.3732 46.861 13.1421 46.861C5.96213 46.861 0.140977 41.0398 0.140977 33.8598C0.140977 33.6268 0.146851 33.3958 0.158599 33.1667L0.156641 33.198C0.0522135 31.4032 0 28.1705 0 23.5C0 18.8295 0.0522135 15.5968 0.156641 13.802C0.146851 13.6042 0.139019 13.3732 0.139019 13.1421C0.139019 5.96213 5.96017 0.140976 13.1402 0.140976C13.3732 0.140976 13.6042 0.146851 13.8333 0.158599L13.802 0.156641C15.5968 0.0522135 18.8295 0 23.5 0C28.1705 0 31.4032 0.0522135 33.198 0.156641C33.3958 0.146851 33.6268 0.139018 33.8579 0.139018C41.0379 0.139018 46.859 5.96017 46.859 13.1402C46.859 13.3732 46.8531 13.6042 46.8414 13.8333L46.8434 13.802C46.9478 15.5955 47 18.8282 47 23.5Z" fill="#976F46"/>
</svg>
