<svg width="131" height="131" viewBox="0 0 131 131" fill="none" xmlns="http://www.w3.org/2000/svg">
<path fill-rule="evenodd" clip-rule="evenodd" d="M65.5 127C99.4655 127 127 99.4655 127 65.5C127 31.5345 99.4655 4 65.5 4C31.5345 4 4 31.5345 4 65.5C4 99.4655 31.5345 127 65.5 127ZM65.5 128C100.018 128 128 100.018 128 65.5C128 30.9822 100.018 3 65.5 3C30.9822 3 3 30.9822 3 65.5C3 100.018 30.9822 128 65.5 128Z" fill="#FBF4EE"/>
<path fill-rule="evenodd" clip-rule="evenodd" d="M85.7278 9.54391C73.8329 5.24394 60.8771 4.84641 48.7409 8.40902C36.6046 11.9716 25.9195 19.309 18.2361 29.3562C10.5528 39.4034 6.27108 51.6377 6.01245 64.2834C5.75382 76.929 9.53171 89.3281 16.7978 99.6811C24.0639 110.034 34.4402 117.802 46.4206 121.858C58.401 125.914 71.3622 126.046 83.423 122.236C95.4839 118.426 106.017 110.872 113.493 100.67C120.969 90.4676 125 78.1483 125 65.5H131C131 79.4238 126.563 92.9853 118.333 104.216C110.103 115.447 98.5075 123.763 85.2304 127.958C71.9533 132.152 57.6851 132.006 44.4966 127.541C31.3081 123.076 19.8855 114.525 11.8867 103.128C3.88785 91.731 -0.27101 78.0816 0.0137016 64.1607C0.298413 50.2398 5.01188 36.7718 13.47 25.7115C21.9281 14.6511 33.6908 6.5738 47.0509 2.65194C60.4109 -1.26992 74.6731 -0.832306 87.7676 3.90127L85.7278 9.54391Z" fill="#FBF4EE"/>
<path fill-rule="evenodd" clip-rule="evenodd" d="M39.5623 81.9581C39.5723 80.7425 39.7167 79.5318 39.9928 78.3483L43.6416 63.4039H38L39.7116 57.0484H53.2828L47.9223 78.3866C47.6208 79.4557 47.4529 80.5582 47.4224 81.6689C47.4224 83.0382 48.089 83.4389 49.1375 83.6759C49.7728 83.8187 54.852 83.7177 57.619 77.5504L61.1394 63.4213H55.4179L57.1364 57.0658H69.3501L67.7809 64.2819C69.923 60.2645 74.2106 56.4456 78.4254 56.4456C82.9317 56.4456 86.6465 59.6652 86.6465 65.836C86.6395 67.6072 86.3751 69.3678 85.8619 71.0625L83.5705 79.3065C83.3643 80.0307 83.2442 80.7769 83.2129 81.5295C83.2129 82.9651 83.7892 83.6828 84.8586 83.6828C85.9279 83.6828 87.2853 82.8919 88.858 78.519L92 79.7385C90.1461 86.2647 86.7854 88.986 82.5707 88.986C77.6407 88.986 75.2834 86.0417 75.2834 82.0312C75.2775 80.8171 75.4459 79.6084 75.7833 78.4424L78.1407 69.9858C78.3907 69.1474 78.5113 68.2755 78.4983 67.4004C78.4983 64.6757 76.8526 63.0276 74.2106 63.0276C70.8499 63.0276 68.6384 65.4457 67.4962 70.1078L62.9169 88.5052H54.918L56.3588 82.7177C54.0049 86.5957 50.7345 89 46.7072 89C41.8467 89 39.5623 86.1916 39.5623 81.9581ZM52.7105 51.7723C51.9318 52.3089 51.0124 52.6026 50.0679 52.6163C49.4334 52.6237 48.8038 52.5048 48.2153 52.2667C47.6268 52.0285 47.0911 51.6757 46.6393 51.2287C46.1874 50.7816 45.8282 50.2491 45.5824 49.662C45.3366 49.0749 45.2092 48.4447 45.2074 47.8079C45.2075 46.8599 45.4868 45.933 46.0103 45.1439C46.5337 44.3547 47.2779 43.7385 48.1493 43.3726C49.0207 43.0067 49.9805 42.9075 50.9079 43.0874C51.8353 43.2674 52.6891 43.7185 53.3618 44.384C54.0345 45.0495 54.4962 45.8997 54.6888 46.8278C54.8815 47.7559 54.7964 48.7205 54.4444 49.6002C54.0924 50.48 53.4892 51.2357 52.7105 51.7723Z" fill="#FBF4EE"/>
</svg>
