<svg width="50" height="50" viewBox="0 0 50 50" fill="none" xmlns="http://www.w3.org/2000/svg">
<path d="M16.2833 30C16.4143 30.0291 16.4798 30.1696 16.4798 30.4215C16.4798 30.7196 16.3644 31.6105 16.1335 33.0942C16.0399 33.5139 15.9712 34.0211 15.9275 34.6156C15.9088 34.8314 15.8995 35.0199 15.8995 35.181V35.3351C15.8995 35.7789 15.9619 36.0667 16.0867 36.1986H16.1522C16.5126 36.1986 16.9432 35.9554 17.444 35.4688C17.99 34.852 18.3426 34.4134 18.5018 34.153V34.1633C18.4019 34.6995 18.1211 35.2478 17.6593 35.808C17.3566 36.1695 17.0633 36.4059 16.7794 36.5173C16.5298 36.6407 16.3113 36.7023 16.1241 36.7023C15.9853 36.6818 15.8761 36.6407 15.7965 36.579C15.6561 36.4299 15.5718 36.2792 15.5437 36.1267C15.4813 35.892 15.4501 35.6727 15.4501 35.4688L15.4314 35.4585C15.238 35.9211 14.9852 36.3288 14.6732 36.6818C14.4454 36.9456 14.2332 37.1204 14.0366 37.206C13.9228 37.2472 13.8167 37.2746 13.7184 37.2883C13.3861 37.2883 13.1396 37.0861 12.9789 36.6818C12.9227 36.5379 12.8821 36.3563 12.8572 36.137C12.8572 36.1215 12.8603 36.1078 12.8665 36.0958C12.8603 36.0496 12.8572 36.0119 12.8572 35.9828C12.8572 35.2375 13.0662 34.4494 13.4844 33.6184C13.8307 33.0633 14.1365 32.7858 14.4017 32.7858H14.4579C14.617 32.7858 14.7606 32.8817 14.8885 33.0736C14.9634 33.2175 15.0008 33.3649 15.0008 33.5156C15.0008 33.8857 14.9665 34.0707 14.8978 34.0707C14.823 34.0707 14.7793 33.9337 14.7668 33.6596C14.7028 33.3786 14.6123 33.2381 14.4953 33.2381H14.4392C14.2519 33.2381 14.0054 33.5773 13.6997 34.2558C13.5748 34.5796 13.4656 34.9771 13.372 35.4482C13.372 35.4893 13.3627 35.5819 13.3439 35.7258H13.3533L13.3439 35.7463V35.7977C13.3439 35.8526 13.3408 35.8971 13.3346 35.9314C13.3471 36.4042 13.45 36.6715 13.6435 36.7332H13.7184C13.9555 36.7332 14.2675 36.4385 14.6545 35.8491C14.8713 35.5048 15.0835 35.0353 15.291 34.4408C15.5032 33.8189 15.7185 32.671 15.9369 30.9971C15.9681 30.6922 16.0243 30.4146 16.1054 30.1645C16.1522 30.0548 16.2115 30 16.2833 30Z" fill="#A68269"/>
<path d="M19.8076 33.0094C19.9371 33.0282 20.0354 33.0625 20.1025 33.1122C20.2335 33.2167 20.2991 33.3606 20.2991 33.5439C20.2991 33.9208 20.0908 34.2052 19.6742 34.3971C19.2889 34.5736 19.0119 34.6678 18.8434 34.6798L18.7569 34.6824C18.696 34.8657 18.6656 35.0516 18.6656 35.2401V35.3223C18.6656 35.7883 18.7873 36.0796 19.0307 36.1961C19.1056 36.2098 19.1477 36.2166 19.157 36.2166C19.3599 36.2492 19.661 36.1524 20.0604 35.9262C20.4239 35.7429 20.9411 35.2195 21.6119 34.356C21.6852 34.2618 21.7469 34.1855 21.7968 34.1273V34.1376C21.5082 34.7818 21.1439 35.342 20.7039 35.8183C20.1438 36.3991 19.6929 36.7135 19.3513 36.7615C19.2686 36.7683 19.1882 36.7717 19.1102 36.7717C18.9417 36.7717 18.7639 36.6895 18.5767 36.525C18.391 36.3006 18.281 36.071 18.2467 35.8363C18.2171 35.6992 18.196 35.5759 18.1835 35.4662C18.1835 35.4508 18.1866 35.4371 18.1929 35.4251C18.1866 35.3788 18.1835 35.3411 18.1835 35.312V35.2195C18.1835 35.0739 18.2311 34.8203 18.3263 34.4588C18.4214 34.183 18.5462 33.9363 18.7007 33.7187C19.0548 33.2458 19.4238 33.0094 19.8076 33.0094ZM18.799 34.5899L18.7966 34.6027C19.0993 34.5068 19.3677 34.3971 19.6017 34.2738C19.8513 34.0973 19.9761 33.9397 19.9761 33.8009V33.7084C19.9621 33.6262 19.9145 33.585 19.8334 33.585H19.7538C19.5853 33.585 19.3918 33.7015 19.1734 33.9345C18.9488 34.2224 18.8239 34.4408 18.799 34.5899Z" fill="#A68269"/>
<path d="M22.9295 33.2484C23.1167 33.2775 23.2103 33.3118 23.2103 33.3512C23.3413 33.4163 23.4069 33.5396 23.4069 33.7212C23.4069 33.944 23.2977 34.1084 23.0792 34.2147C23.0668 34.2147 23.0449 34.2215 23.0137 34.2352C22.9513 34.2198 22.9201 34.1924 22.9201 34.153C22.9825 34.0433 23.0137 33.9577 23.0137 33.896V33.8652C23.0137 33.836 22.9669 33.8189 22.8733 33.8138C22.6143 33.8138 22.3897 33.9028 22.1993 34.081C22.1057 34.213 22.0589 34.3637 22.0589 34.5333C22.101 34.924 22.1759 35.3454 22.2836 35.7977L22.3023 35.8183C22.9279 35.2632 23.6456 34.7424 24.4553 34.2558C24.591 34.1873 24.6628 34.153 24.6706 34.153C24.7143 34.1753 24.7361 34.2027 24.7361 34.2352C24.7361 34.2935 24.5489 34.434 24.1745 34.6567C23.463 35.1398 22.8858 35.5784 22.4427 35.9725C22.3803 36.029 22.3491 36.0667 22.3491 36.0856C22.3616 36.3391 22.3678 36.5002 22.3678 36.5687L22.3585 36.6921L22.3678 36.7126C22.3023 37.1101 22.1712 37.4356 21.9747 37.6892C21.7172 37.9976 21.53 38.1518 21.413 38.1518C21.413 38.1723 21.3381 38.1895 21.1883 38.2032C21.0136 38.1569 20.9262 38.0987 20.9262 38.0284C20.8826 37.9736 20.8607 37.8948 20.8607 37.792C20.8607 37.5453 21.0979 37.1375 21.5721 36.5687C21.7531 36.3922 21.8436 36.286 21.8436 36.25C21.8436 36.2123 21.7625 35.7909 21.6002 34.9856C21.569 34.7972 21.5534 34.643 21.5534 34.5231C21.5534 34.0074 21.7812 33.6339 22.2368 33.4026C22.4645 33.3049 22.6954 33.2535 22.9295 33.2484ZM21.2071 37.6892C21.2133 37.6892 21.2164 37.6926 21.2164 37.6995C21.5004 37.4887 21.6938 37.2283 21.7968 36.9182C21.8342 36.812 21.853 36.7126 21.853 36.6201H21.8342C21.4567 37.057 21.2476 37.4134 21.2071 37.6892Z" fill="#A68269"/>
<path d="M25.7869 31.4417C25.8961 31.4417 26.0084 31.5171 26.1239 31.6679L26.0115 31.8632C25.932 31.966 25.8446 32.0174 25.7494 32.0174C25.726 32.0174 25.648 32.0996 25.5154 32.2641C25.4312 32.3395 25.3625 32.3772 25.3095 32.3772C25.2034 32.3772 25.1316 32.2949 25.0942 32.1305C25.1144 31.9728 25.1519 31.8666 25.2065 31.8118C25.3391 31.6439 25.467 31.5342 25.5903 31.4828C25.7026 31.4554 25.7681 31.4417 25.7869 31.4417ZM25.1363 33.0428C25.2736 33.0513 25.3399 33.131 25.3352 33.2818C25.3368 33.3949 25.2439 33.7272 25.0567 34.2789C24.9444 34.7963 24.8882 35.2007 24.8882 35.4919C24.8882 35.874 24.9569 36.1036 25.0942 36.1806C25.1628 36.2149 25.2346 36.232 25.3095 36.232C25.7588 36.232 26.4109 35.814 27.2659 34.9779C27.5904 34.6044 27.826 34.3226 27.9726 34.1324H27.989C27.6239 34.8143 27.2862 35.36 26.9757 35.7695C26.6808 36.0898 26.453 36.2954 26.2924 36.3862C25.9351 36.6261 25.6511 36.746 25.4405 36.746C25.4405 36.7597 25.4187 36.7666 25.375 36.7666L25.3095 36.7563L25.2439 36.7666C24.9694 36.7101 24.8321 36.6587 24.8321 36.6124C24.545 36.4394 24.4015 36.0624 24.4015 35.4816C24.4015 34.9437 24.5536 34.2378 24.8578 33.364C24.9249 33.167 25.0177 33.0599 25.1363 33.0428Z" fill="#A68269"/>
<path d="M29.9173 32.8809C30.2793 32.9443 30.4603 33.119 30.4603 33.4051C30.4603 33.5559 30.3791 33.7341 30.2169 33.9397C30.1638 33.9945 30.1295 34.0219 30.1139 34.0219C30.0765 34.0116 30.0578 33.9911 30.0578 33.9602L30.2263 33.5799L30.2356 33.5182V33.4668C30.2356 33.3366 30.1202 33.2612 29.8893 33.2407C29.5897 33.2407 29.1966 33.5525 28.7098 34.1761C28.3541 34.7038 28.1762 35.1664 28.1762 35.5639C28.1762 35.7763 28.2511 35.8825 28.4009 35.8825H28.4383C28.7363 35.8466 29.1139 35.6478 29.571 35.2863C29.7847 35.1356 30.2185 34.7278 30.8722 34.063C30.9424 33.9722 31.1109 33.7289 31.3776 33.3332C31.4634 33.2578 31.529 33.2201 31.5742 33.2201C31.7427 33.2201 31.827 33.316 31.827 33.5079C31.827 33.7821 31.7552 34.3063 31.6117 35.0807L31.4338 36.2423H31.4432C33.1297 34.8443 34.118 34.1521 34.4082 34.1658C34.2616 34.2498 33.8411 34.6121 33.1468 35.2529C32.6336 35.6881 32.0407 36.2235 31.3683 36.8591C31.3277 36.8591 31.2747 37.0578 31.2091 37.4553C30.7988 39.3348 30.387 40.654 29.9735 41.413C29.7473 41.8413 29.557 42.0709 29.4025 42.1017C29.4025 42.1206 29.3619 42.1343 29.2808 42.1429C28.8705 42.1429 28.6021 41.7043 28.4758 40.8271C28.4695 40.7363 28.4664 40.6369 28.4664 40.5289C28.4664 39.6243 29.0218 38.5758 30.1326 37.3834C30.6007 36.9499 30.8347 36.7272 30.8347 36.7152C30.9221 36.2149 31.0375 35.4885 31.1811 34.5359V34.5256H31.1623C30.2996 35.396 29.7348 35.8928 29.468 36.0162C29.2917 36.1532 29.0827 36.2629 28.8408 36.3451C28.7082 36.3965 28.5803 36.4308 28.4571 36.4479C28.0561 36.4479 27.8065 36.232 27.7082 35.8003C27.6957 35.7266 27.6863 35.6307 27.6801 35.5125C27.7113 35.2315 27.7737 34.9848 27.8673 34.7723C27.95 34.5685 28.1029 34.308 28.326 33.9911C28.9189 33.2509 29.4493 32.8809 29.9173 32.8809ZM28.9719 40.5084L28.9813 40.5598C28.9813 40.5632 28.9781 40.5769 28.9719 40.6009C28.9719 40.8973 29.0437 41.1954 29.1872 41.4952C29.2168 41.5432 29.2418 41.5672 29.2621 41.5672C29.4602 41.3308 29.6818 40.8853 29.9267 40.2308C30.1888 39.4941 30.4322 38.6101 30.6569 37.5787H30.6475C30.245 37.9984 29.9236 38.3891 29.6833 38.7506C29.209 39.4444 28.9719 40.0304 28.9719 40.5084Z" fill="#A68269"/>
<path d="M34.4106 32.9785C34.5853 33.0197 34.6727 33.1122 34.6727 33.2561C34.6664 33.316 34.6633 33.3537 34.6633 33.3692C34.6633 33.3726 34.6571 33.4043 34.6446 33.4642C34.5291 33.8686 34.4184 34.595 34.3123 35.6435V35.6538H34.3216C34.5088 35.0799 34.8895 34.3329 35.4637 33.4128C35.8131 32.9331 36.0503 32.6933 36.1751 32.6933C36.1751 32.6796 36.1969 32.6727 36.2406 32.6727C36.4356 32.6727 36.5667 32.7858 36.6338 33.0119C36.6338 33.1079 36.64 33.1559 36.6525 33.1559C36.6525 33.1918 36.5838 33.6716 36.4465 34.595C36.4091 35.0268 36.3873 35.3763 36.381 35.6435C36.3873 35.6572 36.3904 35.6675 36.3904 35.6744C36.3904 35.6778 36.3873 35.6915 36.381 35.7155C36.381 36.0924 36.4278 36.2809 36.5214 36.2809H36.5589C36.7399 36.2809 36.9832 36.1233 37.289 35.808C37.4497 35.5973 37.8335 35.073 38.4404 34.2352L38.5621 34.0913H38.5715C38.4186 34.4014 38.1533 34.9188 37.7758 35.6435C37.6494 35.9348 37.456 36.2226 37.1954 36.507C36.9676 36.7126 36.7711 36.8154 36.6057 36.8154C36.6057 36.8223 36.5901 36.8291 36.5589 36.836C36.2375 36.836 36.0284 36.6475 35.9317 36.2706C35.9005 36.1335 35.8787 35.9348 35.8662 35.6744C35.8724 35.647 35.8755 35.6196 35.8755 35.5921V35.5716C35.8755 35.551 35.8724 35.5407 35.8662 35.5407L35.8755 35.4893C35.8755 35.0405 35.9691 34.2729 36.1564 33.1867H36.1376C35.8927 33.4163 35.6961 33.6493 35.5479 33.8857C34.8287 34.9445 34.395 35.808 34.2467 36.4762L34.2561 36.5481C34.2202 36.7949 34.1297 36.9182 33.9846 36.9182C33.8583 36.9182 33.7771 36.7914 33.7413 36.5379V36.4351C33.7413 35.9468 33.8622 34.9565 34.104 33.4642C34.1258 33.3375 34.1469 33.2407 34.1672 33.1738C34.2296 33.0436 34.3107 32.9785 34.4106 32.9785Z" fill="#A68269"/>
<path d="M24.3105 11.1763C24.5234 11.1763 24.7984 11.1335 25.1355 11.048C25.4727 10.9624 25.7211 10.8854 25.8808 10.817C26.0227 10.7486 26.1203 10.7144 26.1735 10.7144C26.2268 10.7144 26.2889 10.7315 26.3599 10.7657C26.4486 11.5356 26.5462 12.2798 26.6526 12.9984C26.7768 13.7169 26.9099 14.4098 27.0519 15.0771C27.0164 15.1113 26.9543 15.154 26.8655 15.2054C26.7768 15.2567 26.6704 15.2738 26.5462 15.2567C26.351 15.2567 26.2268 15.2139 26.1735 15.1284C25.9961 14.2558 25.7033 13.5287 25.2952 12.947C24.8871 12.3653 24.3548 12.0745 23.6983 12.0745H20.398V24.8546C20.398 25.231 20.398 25.5818 20.398 25.9068C20.4157 26.2319 20.4601 26.4971 20.5311 26.7024C20.5666 26.7879 20.7085 26.8649 20.9569 26.9333C21.2053 27.0018 21.4626 27.0531 21.7288 27.0873C22.0127 27.1044 22.2078 27.113 22.3143 27.113C22.3675 27.1814 22.3942 27.3012 22.3942 27.4723C22.4119 27.6434 22.3853 27.7631 22.3143 27.8315C21.782 27.7973 21.2674 27.7717 20.7706 27.7546C20.2915 27.7203 19.7947 27.7032 19.2801 27.7032C18.7833 27.7032 18.2776 27.7203 17.7631 27.7546C17.2485 27.7717 16.7251 27.7973 16.1928 27.8315C16.1218 27.7631 16.0863 27.6434 16.0863 27.4723C16.104 27.3012 16.1395 27.1814 16.1928 27.113C16.2992 27.113 16.4944 27.1044 16.7783 27.0873C17.0622 27.0531 17.3283 27.0018 17.5768 26.9333C17.8429 26.8649 17.9849 26.7879 18.0026 26.7024C18.0736 26.4971 18.1091 26.2319 18.1091 25.9068C18.1268 25.5818 18.1357 25.231 18.1357 24.8546V12.0745H14.7821C14.1256 12.0745 13.5933 12.3653 13.1852 12.947C12.7771 13.5287 12.4755 14.2558 12.2803 15.1284C12.2271 15.2139 12.1028 15.2567 11.9077 15.2567C11.7835 15.2738 11.677 15.2567 11.5883 15.2054C11.5173 15.154 11.4641 15.1113 11.4286 15.0771C11.5705 14.4098 11.6947 13.7169 11.8012 12.9984C11.9077 12.2798 12.0053 11.5356 12.094 10.7657C12.1827 10.7315 12.2892 10.7315 12.4134 10.7657C12.5376 10.7828 12.6352 10.8085 12.7061 10.8427C12.8658 10.9111 13.0876 10.9881 13.3715 11.0736C13.6732 11.1421 13.9304 11.1763 14.1434 11.1763H24.3105Z" fill="#A68269"/>
<path d="M31.5586 24.8546C31.5586 24.8889 31.5586 24.9402 31.5586 25.0086C31.5586 25.1626 31.5586 25.3679 31.5586 25.6245C31.5586 25.8641 31.5675 26.0865 31.5852 26.2918C31.603 26.4971 31.6384 26.6168 31.6917 26.6511C31.8691 26.7708 32.082 26.8478 32.3304 26.882C32.5966 26.8991 33.0047 26.9077 33.5548 26.9077H35.0186C35.5154 26.9077 36.0566 26.8564 36.6421 26.7537C37.2454 26.6339 37.7245 26.4543 38.0794 26.2148C38.3988 25.9924 38.6915 25.6844 38.9577 25.2909C39.2416 24.8974 39.49 24.3671 39.7029 23.6998C39.7384 23.5972 39.8626 23.5458 40.0755 23.5458C40.3949 23.5458 40.6078 23.5972 40.7143 23.6998C40.4659 24.3842 40.1909 25.1113 39.8892 25.8812C39.6053 26.6511 39.419 27.3097 39.3303 27.8572C37.9286 27.8572 36.5357 27.8401 35.1517 27.8059C33.7677 27.7717 32.2062 27.7546 30.4674 27.7546C29.8641 27.7546 29.3229 27.7631 28.8438 27.7802C28.3647 27.8144 27.8679 27.8315 27.3534 27.8315C27.2824 27.7631 27.2469 27.6434 27.2469 27.4723C27.2646 27.3012 27.3001 27.1814 27.3534 27.113C27.4598 27.113 27.655 27.1044 27.9389 27.0873C28.2228 27.0531 28.4889 27.0018 28.7374 26.9333C29.0035 26.8649 29.1455 26.7879 29.1632 26.7024C29.2342 26.4971 29.2697 26.2319 29.2697 25.9068C29.2874 25.5818 29.2963 25.231 29.2963 24.8546V14.1532C29.2963 13.7768 29.2874 13.4261 29.2697 13.101C29.2697 12.7588 29.2342 12.4851 29.1632 12.2798C29.1455 12.1771 29.0035 12.1002 28.7374 12.0488C28.4889 11.9975 28.2228 11.9633 27.9389 11.9462C27.655 11.912 27.4598 11.8949 27.3534 11.8949C27.3001 11.8264 27.2646 11.7067 27.2469 11.5356C27.2469 11.3645 27.2824 11.2447 27.3534 11.1763C27.8857 11.1934 28.4091 11.2191 28.9237 11.2533C29.4382 11.2704 29.9439 11.2789 30.4407 11.2789C30.9553 11.2789 31.4521 11.2704 31.9312 11.2533C32.428 11.2191 32.9426 11.1934 33.4749 11.1763C33.5459 11.2447 33.5725 11.3645 33.5548 11.5356C33.5548 11.7067 33.5281 11.8264 33.4749 11.8949C33.3684 11.8949 33.1733 11.912 32.8894 11.9462C32.6055 11.9633 32.3393 11.9975 32.0909 12.0488C31.8425 12.1002 31.7005 12.1771 31.6651 12.2798C31.6118 12.4509 31.5763 12.6733 31.5586 12.947C31.5586 13.2208 31.5586 13.5202 31.5586 13.8452C31.5586 13.8966 31.5586 13.9479 31.5586 13.9992C31.5586 14.0505 31.5586 14.1019 31.5586 14.1532V24.8546Z" fill="#A68269"/>
<path fill-rule="evenodd" clip-rule="evenodd" d="M25 49.763C38.6762 49.763 49.763 38.6762 49.763 25C49.763 11.3238 38.6762 0.236967 25 0.236967C11.3238 0.236967 0.236967 11.3238 0.236967 25C0.236967 38.6762 11.3238 49.763 25 49.763ZM25 50C38.8071 50 50 38.8071 50 25C50 11.1929 38.8071 0 25 0C11.1929 0 0 11.1929 0 25C0 38.8071 11.1929 50 25 50Z" fill="#A68269"/>
</svg>
