<svg width="70" height="70" viewBox="0 0 70 70" fill="none" xmlns="http://www.w3.org/2000/svg">
<path d="M22.7965 42C22.98 42.0408 23.0717 42.2375 23.0717 42.5901C23.0717 43.0074 22.9101 44.2547 22.5868 46.3319C22.4558 46.9195 22.3597 47.6295 22.2985 48.4618C22.2723 48.764 22.2592 49.0279 22.2592 49.2533V49.4692C22.2592 50.0904 22.3466 50.4934 22.5213 50.6781H22.613C23.1176 50.6781 23.7204 50.3375 24.4216 49.6563C25.186 48.7928 25.6797 48.1788 25.9024 47.8142V47.8286C25.7627 48.5793 25.3695 49.3469 24.723 50.1312C24.2992 50.6373 23.8886 50.9683 23.4911 51.1242C23.1416 51.2969 22.8358 51.3833 22.5737 51.3833C22.3793 51.3545 22.2264 51.2969 22.115 51.2106C21.9185 51.0019 21.8005 50.7908 21.7612 50.5774C21.6738 50.2487 21.6301 49.9417 21.6301 49.6563L21.6039 49.6419C21.3331 50.2895 20.9793 50.8604 20.5424 51.3545C20.2235 51.7239 19.9265 51.9685 19.6513 52.0885C19.4918 52.146 19.3433 52.1844 19.2057 52.2036C18.7404 52.2036 18.3953 51.9206 18.1704 51.3545C18.0917 51.153 18.0349 50.8988 18 50.5917C18 50.5702 18.0044 50.551 18.0131 50.5342C18.0044 50.4694 18 50.4166 18 50.3759C18 49.3325 18.2927 48.2291 18.878 47.0658C19.3629 46.2887 19.791 45.9001 20.1624 45.9001H20.241C20.4638 45.9001 20.6647 46.0344 20.8438 46.3031C20.9487 46.5046 21.0011 46.7108 21.0011 46.9219C21.0011 47.44 20.953 47.699 20.8569 47.699C20.7521 47.699 20.6909 47.5072 20.6735 47.1234C20.5839 46.73 20.4572 46.5333 20.2934 46.5333H20.2148C19.9527 46.5333 19.6076 47.0083 19.1795 47.9581C19.0047 48.4114 18.8518 48.9679 18.7208 49.6275C18.7208 49.6851 18.7077 49.8146 18.6815 50.0161H18.6946L18.6815 50.0449V50.1168C18.6815 50.1936 18.6771 50.2559 18.6684 50.3039C18.6858 50.9659 18.83 51.3401 19.1008 51.4265H19.2057C19.5377 51.4265 19.9745 51.0139 20.5162 50.1888C20.8198 49.7067 21.1169 49.0495 21.4074 48.2171C21.7044 47.3465 22.0058 45.7394 22.3116 43.396C22.3553 42.969 22.4339 42.5805 22.5475 42.2303C22.613 42.0768 22.696 42 22.7965 42Z" fill="#FBF4EE"/>
<path d="M27.7306 46.2131C27.9119 46.2395 28.0495 46.2875 28.1434 46.357C28.3269 46.5034 28.4186 46.7048 28.4186 46.9615C28.4186 47.4892 28.127 47.8873 27.5439 48.156C27.0044 48.403 26.6167 48.535 26.3808 48.5517L26.2596 48.5553C26.1744 48.812 26.1318 49.0722 26.1318 49.3361V49.4512C26.1318 50.1036 26.3021 50.5114 26.6429 50.6745C26.7477 50.6937 26.8067 50.7033 26.8198 50.7033C27.1037 50.7489 27.5253 50.6133 28.0845 50.2967C28.5934 50.0401 29.3174 49.3073 30.2566 48.0984C30.3593 47.9665 30.4456 47.8598 30.5155 47.7782V47.7926C30.1114 48.6945 29.6014 49.4788 28.9854 50.1456C28.2013 50.9587 27.5701 51.3989 27.0917 51.466C26.976 51.4756 26.8635 51.4804 26.7543 51.4804C26.5184 51.4804 26.2694 51.3653 26.0073 51.135C25.7474 50.8208 25.5934 50.4994 25.5453 50.1708C25.5038 49.9789 25.4743 49.8062 25.4569 49.6527C25.4569 49.6311 25.4612 49.6119 25.47 49.5951C25.4612 49.5304 25.4569 49.4776 25.4569 49.4368V49.3073C25.4569 49.1034 25.5235 48.7484 25.6567 48.2423C25.79 47.8562 25.9647 47.5108 26.1809 47.2061C26.6767 46.5441 27.1933 46.2131 27.7306 46.2131ZM26.3185 48.4258L26.3153 48.4438C26.739 48.3095 27.1147 48.156 27.4423 47.9833C27.7918 47.7362 27.9665 47.5156 27.9665 47.3213V47.1917C27.9469 47.0766 27.8802 47.019 27.7667 47.019H27.6553C27.4194 47.019 27.1485 47.1822 26.8427 47.5084C26.5282 47.9113 26.3535 48.2171 26.3185 48.4258Z" fill="#FBF4EE"/>
<path d="M32.1012 46.5477C32.3633 46.5885 32.4944 46.6365 32.4944 46.6916C32.6778 46.7828 32.7696 46.9555 32.7696 47.2097C32.7696 47.5216 32.6167 47.7518 32.3109 47.9005C32.2934 47.9005 32.2628 47.9101 32.2191 47.9293C32.1318 47.9077 32.0881 47.8693 32.0881 47.8142C32.1755 47.6607 32.2191 47.5407 32.2191 47.4544V47.4112C32.2191 47.3704 32.1536 47.3465 32.0226 47.3393C31.66 47.3393 31.3455 47.464 31.079 47.7134C30.9479 47.8981 30.8824 48.1092 30.8824 48.3467C30.9414 48.8935 31.0462 49.4836 31.1969 50.1168L31.2232 50.1456C32.099 49.3685 33.1037 48.6393 34.2374 47.9581C34.4274 47.8622 34.5278 47.8142 34.5388 47.8142C34.5999 47.8454 34.6305 47.8837 34.6305 47.9293C34.6305 48.0109 34.3684 48.2075 33.8442 48.5194C32.8482 49.1958 32.04 49.8098 31.4197 50.3615C31.3324 50.4406 31.2887 50.4934 31.2887 50.5198C31.3062 50.8748 31.3149 51.1002 31.3149 51.1962L31.3018 51.3689L31.3149 51.3977C31.2232 51.9541 31.0397 52.4099 30.7645 52.7649C30.4041 53.1966 30.142 53.4125 29.9782 53.4125C29.9782 53.4413 29.8733 53.4653 29.6636 53.4844C29.419 53.4197 29.2967 53.3381 29.2967 53.2398C29.2355 53.163 29.205 53.0527 29.205 52.9088C29.205 52.5634 29.5369 51.9925 30.2009 51.1962C30.4543 50.9491 30.581 50.8004 30.581 50.7501C30.581 50.6973 30.4674 50.1072 30.2403 48.9799C30.1966 48.716 30.1747 48.5002 30.1747 48.3323C30.1747 47.6103 30.4936 47.0874 31.1314 46.7636C31.4503 46.6269 31.7736 46.5549 32.1012 46.5477ZM29.6898 52.7649C29.6986 52.7649 29.7029 52.7697 29.7029 52.7793C30.1005 52.4842 30.3713 52.1196 30.5155 51.6855C30.5679 51.5368 30.5941 51.3977 30.5941 51.2681H30.5679C30.0393 51.8798 29.7466 52.3787 29.6898 52.7649Z" fill="#FBF4EE"/>
<path d="M36.1016 44.0184C36.2545 44.0184 36.4117 44.124 36.5734 44.335L36.4161 44.6085C36.3047 44.7524 36.1824 44.8243 36.0491 44.8243C36.0164 44.8243 35.9072 44.9395 35.7215 45.1697C35.6036 45.2753 35.5075 45.328 35.4332 45.328C35.2847 45.328 35.1842 45.2129 35.1318 44.9826C35.1602 44.762 35.2126 44.6133 35.289 44.5365C35.4747 44.3014 35.6538 44.1479 35.8264 44.076C35.9836 44.0376 36.0754 44.0184 36.1016 44.0184ZM35.1908 46.2599C35.383 46.2719 35.4758 46.3834 35.4692 46.5945C35.4714 46.7528 35.3415 47.2181 35.0794 47.9905C34.9221 48.7148 34.8435 49.2809 34.8435 49.6887C34.8435 50.2236 34.9396 50.545 35.1318 50.6529C35.2279 50.7009 35.3284 50.7249 35.4332 50.7249C36.0623 50.7249 36.9752 50.1396 38.1722 48.9691C38.6265 48.4462 38.9563 48.0516 39.1616 47.7854H39.1846C38.6735 48.74 38.2006 49.504 37.7659 50.0772C37.3531 50.5258 37.0342 50.8136 36.8092 50.9407C36.3091 51.2765 35.9115 51.4444 35.6167 51.4444C35.6167 51.4636 35.5861 51.4732 35.5249 51.4732L35.4332 51.4588L35.3415 51.4732C34.957 51.3941 34.7648 51.3221 34.7648 51.2574C34.3629 51.0151 34.162 50.4874 34.162 49.6743C34.162 48.9211 34.375 47.9329 34.8009 46.7096C34.8948 46.4338 35.0248 46.2839 35.1908 46.2599Z" fill="#FBF4EE"/>
<path d="M41.8842 46.0332C42.391 46.122 42.6443 46.3666 42.6443 46.7672C42.6443 46.9783 42.5308 47.2277 42.3036 47.5156C42.2293 47.5923 42.1813 47.6307 42.1594 47.6307C42.107 47.6163 42.0808 47.5875 42.0808 47.5443L42.3167 47.0119L42.3298 46.9255V46.8535C42.3298 46.6713 42.1682 46.5657 41.8449 46.5369C41.4256 46.5369 40.8751 46.9735 40.1937 47.8466C39.6957 48.5853 39.4467 49.2329 39.4467 49.7894C39.4467 50.0868 39.5515 50.2356 39.7612 50.2356H39.8136C40.2308 50.1852 40.7594 49.9069 41.3993 49.4008C41.6986 49.1898 42.3058 48.6189 43.221 47.6883C43.3193 47.5611 43.5552 47.2205 43.9286 46.6665C44.0488 46.5609 44.1405 46.5081 44.2039 46.5081C44.4398 46.5081 44.5577 46.6425 44.5577 46.9111C44.5577 47.2949 44.4572 48.0289 44.2563 49.113L44.0073 50.7393H44.0204C46.3815 48.782 47.7652 47.813 48.1715 47.8322C47.9661 47.9497 47.3775 48.457 46.4055 49.3541C45.6869 49.9633 44.8569 50.7129 43.9155 51.6028C43.8588 51.6028 43.7845 51.881 43.6928 52.4375C43.1183 55.0687 42.5417 56.9156 41.9629 57.9782C41.6462 58.5778 41.3797 58.8993 41.1635 58.9424C41.1635 58.9688 41.1067 58.988 40.9931 59C40.4186 59 40.043 58.386 39.866 57.1579C39.8573 57.0308 39.8529 56.8916 39.8529 56.7405C39.8529 55.4741 40.6305 54.0061 42.1857 52.3367C42.8409 51.7299 43.1685 51.4181 43.1685 51.4013C43.2909 50.7009 43.4525 49.6839 43.6534 48.3503V48.3359H43.6272C42.4194 49.5544 41.6287 50.2499 41.2552 50.4226C41.0084 50.6145 40.7157 50.768 40.3771 50.8832C40.1915 50.9551 40.0124 51.0031 39.8398 51.0271C39.2785 51.0271 38.929 50.7249 38.7914 50.1204C38.7739 50.0173 38.7608 49.883 38.7521 49.7175C38.7958 49.3241 38.8831 48.9787 39.0142 48.6813C39.13 48.3958 39.344 48.0313 39.6564 47.5875C40.4863 46.5513 41.229 46.0332 41.8842 46.0332ZM40.5606 56.7117L40.5737 56.7837C40.5737 56.7885 40.5693 56.8077 40.5606 56.8413C40.5606 57.2562 40.6611 57.6736 40.862 58.0933C40.9035 58.1605 40.9385 58.1941 40.9669 58.1941C41.2443 57.8631 41.5544 57.2394 41.8973 56.3232C42.2643 55.2918 42.605 54.0541 42.9195 52.6102H42.9064C42.3429 53.1978 41.893 53.7447 41.5566 54.2508C40.8926 55.2222 40.5606 56.0425 40.5606 56.7117Z" fill="#FBF4EE"/>
<path d="M48.1747 46.1699C48.4194 46.2275 48.5417 46.357 48.5417 46.5585C48.5329 46.6425 48.5286 46.6952 48.5286 46.7168C48.5286 46.7216 48.5198 46.766 48.5024 46.8499C48.3407 47.416 48.1857 48.433 48.0371 49.901V49.9153H48.0502C48.3123 49.1118 48.8453 48.066 49.6491 46.778C50.1383 46.1064 50.4703 45.7706 50.6451 45.7706C50.6451 45.7514 50.6756 45.7418 50.7368 45.7418C51.0098 45.7418 51.1933 45.9001 51.2872 46.2167C51.2872 46.351 51.296 46.4182 51.3134 46.4182C51.3134 46.4686 51.2173 47.1402 51.0251 48.433C50.9727 49.0375 50.9421 49.5268 50.9334 49.901C50.9421 49.9201 50.9465 49.9345 50.9465 49.9441C50.9465 49.9489 50.9421 49.9681 50.9334 50.0017C50.9334 50.5294 50.9989 50.7932 51.13 50.7932H51.1824C51.4357 50.7932 51.7765 50.5726 52.2046 50.1312C52.4296 49.8362 52.9669 49.1022 53.8165 47.9293L53.9869 47.7278H54C53.7859 48.162 53.4146 48.8863 52.8861 49.901C52.7091 50.3087 52.4383 50.7117 52.0735 51.1098C51.7546 51.3977 51.4794 51.5416 51.2479 51.5416C51.2479 51.5512 51.2261 51.5608 51.1824 51.5704C50.7324 51.5704 50.4398 51.3065 50.3043 50.7788C50.2606 50.5869 50.2301 50.3087 50.2126 49.9441C50.2213 49.9057 50.2257 49.8674 50.2257 49.829V49.8002C50.2257 49.7714 50.2213 49.757 50.2126 49.757L50.2257 49.6851C50.2257 49.0566 50.3568 47.9821 50.6189 46.4614H50.5926C50.2497 46.7828 49.9745 47.109 49.767 47.44C48.7601 48.9223 48.1529 50.1312 47.9454 51.0667L47.9585 51.1674C47.9083 51.5128 47.7816 51.6855 47.5784 51.6855C47.4015 51.6855 47.288 51.508 47.2377 51.153V51.0091C47.2377 50.3255 47.407 48.9391 47.7455 46.8499C47.7761 46.6725 47.8056 46.5369 47.834 46.4434C47.9214 46.2611 48.0349 46.1699 48.1747 46.1699Z" fill="#FBF4EE"/>
<path d="M34.0346 15.6467C34.3327 15.6467 34.7178 15.5868 35.1897 15.4671C35.6617 15.3473 36.0095 15.2395 36.2331 15.1437C36.4318 15.0479 36.5684 15 36.6429 15C36.7175 15 36.8044 15.024 36.9038 15.0719C37.028 16.1497 37.1646 17.1916 37.3136 18.1976C37.4875 19.2036 37.6738 20.1737 37.8726 21.1078C37.8229 21.1557 37.7359 21.2156 37.6117 21.2874C37.4875 21.3593 37.3385 21.3832 37.1646 21.3593C36.8913 21.3593 36.7175 21.2994 36.6429 21.1796C36.3945 19.9581 35.9846 18.9401 35.4133 18.1257C34.842 17.3114 34.0967 16.9042 33.1776 16.9042H28.5572V34.7964C28.5572 35.3234 28.5572 35.8144 28.5572 36.2695C28.582 36.7246 28.6441 37.0958 28.7435 37.3832C28.7932 37.503 28.9919 37.6108 29.3397 37.7066C29.6874 37.8024 30.0476 37.8743 30.4202 37.9222C30.8177 37.9461 31.091 37.9581 31.24 37.9581C31.3145 38.0539 31.3518 38.2216 31.3518 38.4611C31.3766 38.7006 31.3394 38.8683 31.24 38.9641C30.4948 38.9162 29.7744 38.8802 29.0788 38.8563C28.4081 38.8084 27.7126 38.7844 26.9922 38.7844C26.2966 38.7844 25.5887 38.8084 24.8683 38.8563C24.1479 38.8802 23.4151 38.9162 22.6698 38.9641C22.5705 38.8683 22.5208 38.7006 22.5208 38.4611C22.5456 38.2216 22.5953 38.0539 22.6698 37.9581C22.8189 37.9581 23.0921 37.9461 23.4896 37.9222C23.887 37.8743 24.2597 37.8024 24.6074 37.7066C24.98 37.6108 25.1788 37.503 25.2036 37.3832C25.303 37.0958 25.3527 36.7246 25.3527 36.2695C25.3775 35.8144 25.3899 35.3234 25.3899 34.7964V16.9042H20.695C19.7758 16.9042 19.0306 17.3114 18.4593 18.1257C17.8879 18.9401 17.4656 19.9581 17.1924 21.1796C17.1178 21.2994 16.944 21.3593 16.6707 21.3593C16.4968 21.3832 16.3478 21.3593 16.2236 21.2874C16.1242 21.2156 16.0497 21.1557 16 21.1078C16.1987 20.1737 16.3726 19.2036 16.5217 18.1976C16.6707 17.1916 16.8073 16.1497 16.9315 15.0719C17.0557 15.024 17.2048 15.024 17.3787 15.0719C17.5526 15.0958 17.6892 15.1317 17.7886 15.1796C18.0121 15.2754 18.3226 15.3832 18.7201 15.503C19.1424 15.5988 19.5026 15.6467 19.8007 15.6467H34.0346Z" fill="#FBF4EE"/>
<path d="M44.182 34.7964C44.182 34.8443 44.182 34.9162 44.182 35.012C44.182 35.2275 44.182 35.515 44.182 35.8743C44.182 36.2096 44.1944 36.521 44.2193 36.8084C44.2441 37.0958 44.2938 37.2635 44.3683 37.3114C44.6167 37.479 44.9148 37.5868 45.2626 37.6347C45.6352 37.6587 46.2066 37.6707 46.9766 37.6707H49.026C49.7216 37.6707 50.4792 37.5988 51.299 37.4551C52.1436 37.2874 52.8143 37.0359 53.3111 36.7006C53.7582 36.3892 54.1681 35.9581 54.5407 35.4072C54.9382 34.8563 55.286 34.1138 55.5841 33.1796C55.6337 33.0359 55.8076 32.9641 56.1057 32.9641C56.5529 32.9641 56.851 33.0359 57 33.1796C56.6522 34.1377 56.2672 35.1557 55.8449 36.2335C55.4474 37.3114 55.1866 38.2335 55.0624 39C53.1 39 51.1499 38.976 49.2123 38.9281C47.2747 38.8802 45.0887 38.8563 42.6543 38.8563C41.8097 38.8563 41.052 38.8683 40.3813 38.8922C39.7106 38.9401 39.0151 38.9641 38.2947 38.9641C38.1953 38.8683 38.1456 38.7006 38.1456 38.4611C38.1705 38.2216 38.2201 38.0539 38.2947 37.9581C38.4437 37.9581 38.717 37.9461 39.1144 37.9222C39.5119 37.8743 39.8845 37.8024 40.2323 37.7066C40.6049 37.6108 40.8036 37.503 40.8285 37.3832C40.9278 37.0958 40.9775 36.7246 40.9775 36.2695C41.0023 35.8144 41.0148 35.3234 41.0148 34.7964V19.8144C41.0148 19.2874 41.0023 18.7964 40.9775 18.3413C40.9775 17.8623 40.9278 17.479 40.8285 17.1916C40.8036 17.0479 40.6049 16.9401 40.2323 16.8683C39.8845 16.7964 39.5119 16.7485 39.1144 16.7246C38.717 16.6766 38.4437 16.6527 38.2947 16.6527C38.2201 16.5569 38.1705 16.3892 38.1456 16.1497C38.1456 15.9102 38.1953 15.7425 38.2947 15.6467C39.0399 15.6707 39.7727 15.7066 40.4931 15.7545C41.2135 15.7784 41.9215 15.7904 42.617 15.7904C43.3374 15.7904 44.033 15.7784 44.7037 15.7545C45.3992 15.7066 46.1196 15.6707 46.8648 15.6467C46.9642 15.7425 47.0015 15.9102 46.9766 16.1497C46.9766 16.3892 46.9394 16.5569 46.8648 16.6527C46.7158 16.6527 46.4425 16.6766 46.0451 16.7246C45.6476 16.7485 45.275 16.7964 44.9272 16.8683C44.5795 16.9401 44.3807 17.0479 44.3311 17.1916C44.2565 17.4311 44.2068 17.7425 44.182 18.1257C44.182 18.509 44.182 18.9281 44.182 19.3832C44.182 19.4551 44.182 19.5269 44.182 19.5988C44.182 19.6707 44.182 19.7425 44.182 19.8144V34.7964Z" fill="#FBF4EE"/>
<path fill-rule="evenodd" clip-rule="evenodd" d="M35 69.6682C54.1467 69.6682 69.6682 54.1467 69.6682 35C69.6682 15.8533 54.1467 0.331754 35 0.331754C15.8533 0.331754 0.331754 15.8533 0.331754 35C0.331754 54.1467 15.8533 69.6682 35 69.6682ZM35 70C54.33 70 70 54.33 70 35C70 15.67 54.33 0 35 0C15.67 0 0 15.67 0 35C0 54.33 15.67 70 35 70Z" fill="#FBF4EE"/>
</svg>
