<svg width="722" height="383" viewBox="0 0 722 383" fill="none" xmlns="http://www.w3.org/2000/svg">
<path d="M721 381.024L485.305 382.013C485.305 382.013 467.737 379.573 459.437 377.441C451.138 375.309 429.42 367.219 423.105 365.526C416.768 363.834 398.546 360.097 388.623 360.536C378.7 360.976 357.41 361.064 353.148 363.944C348.886 366.823 352.268 368.626 355.651 369.791C359.034 370.956 391.013 376.605 407.274 377.243C423.534 377.88 443.944 381.925 450.168 368.318C456.393 354.711 471.458 317.802 471.458 317.802L505.828 236.643C505.828 236.643 513.247 224.729 522.088 224.421C530.928 224.091 637.443 224.421 637.443 224.421C637.443 224.421 644.096 223.783 640.488 234.203C636.88 244.623 607.742 310.043 607.742 310.043L590.174 348.974C590.174 348.974 584.603 357.063 573.598 359.503C562.569 361.943 490.221 371.528 490.221 371.528C490.221 371.528 570.981 366.845 577.409 363.548C583.836 360.251 591.82 359.195 603.818 330.904C615.816 302.613 643.871 237.874 643.871 237.874L648.02 225.498C648.02 225.498 649.013 215.716 646.374 213.474C643.758 211.232 636.992 211.341 636.992 211.341H521.208C521.208 211.341 506.256 212.089 501.024 219.849C495.792 227.608 487.921 248.887 487.921 248.887L461.941 312.812L443.38 355.678C443.38 355.678 439.884 362.603 434.878 363.13C429.849 363.658 421.775 360.163 421.775 358.558C421.775 356.953 421.437 355.261 428.879 354.931C436.299 354.601 433.028 357.898 433.028 357.898C433.028 357.898 425.113 363.438 421.888 363.966C418.663 364.493 393.088 368.23 371.37 365.241C349.652 362.251 343.112 361.943 344.736 358.118C346.382 354.293 406.71 353.546 406.71 353.546C406.71 353.546 424.707 353.656 428.744 345.149C432.78 336.641 412.912 339.829 424.053 342.269C435.194 344.709 443.042 339.719 444.237 334.399C445.432 329.079 443.696 325.364 446.74 326.749C449.785 328.134 450.123 325.892 449.695 324.507C449.266 323.122 447.304 311.955 441.395 309.713C435.487 307.471 429.51 305.888 429.51 308.548C429.51 311.208 433.885 313.538 434.314 316.835C434.742 320.133 434.54 332.267 435.735 333.322C436.93 334.377 440.426 336.29 441.846 332.267C443.267 328.222 445.455 321.517 441.418 316.198C437.381 310.878 434.427 306.306 428.766 306.416C423.105 306.525 418.279 307.471 416.971 309.383C415.663 311.296 415.55 312.461 417.4 314.175C419.249 315.868 421.662 322.683 421.775 326.947C421.888 331.212 421.234 335.784 423.511 336.839C425.812 337.894 429.51 337.806 430.39 333.432C431.269 329.079 432.78 319.187 429.51 315.45C426.24 311.735 423.511 306.086 416.971 306.525C410.431 306.943 403.868 312.373 402.673 316.418C401.478 320.462 402.335 324.067 403.44 325.672C404.522 327.277 405.74 329.387 406.169 332.377C406.597 335.344 406.169 343.126 406.823 345.149C407.477 347.171 413.047 350.688 415.325 344.621C417.625 338.554 417.287 326.749 416.092 324.617C414.896 322.485 408.897 306.855 400.914 309.405C392.93 311.955 391.758 324.287 388.375 327.804C384.992 331.322 378.564 334.399 376.58 336.641C374.618 338.884 368.168 346.424 376.805 348.226C385.42 350.029 392.412 346.424 392.637 343.544C392.863 340.664 387.946 338.004 382.714 339.719C377.482 341.412 376.828 345.149 368.1 343.764C363.68 343.06 356.937 335.696 351.344 328.618C345.909 321.715 341.579 315.055 341.579 315.055C341.579 315.055 320.086 282.301 316.252 280.476C312.441 278.674 307.096 277.399 306.87 283.246C306.645 289.093 308.72 296.435 315.17 302.283C321.597 308.13 346.495 334.201 355.11 328.662C363.725 323.122 382.759 308.746 374.888 294.259C367.018 279.773 311.155 190.172 300.984 181.094C298.706 179.071 296.474 177.488 294.489 176.433C287.611 172.74 283.822 175.246 291.963 186.479C302.45 200.944 323.108 245.766 316.41 257.395C309.712 269.023 291.67 289.159 248.888 283.202C206.106 277.245 223.291 322.067 226.764 328.31C230.26 334.553 258.202 366.032 286.122 342.203C314.065 318.374 307.367 299.667 289.031 295.117C270.696 290.566 251.211 293.424 257.593 299.381C263.976 305.338 303.871 299.381 307.637 274.145C311.426 248.909 291.332 179.687 279.988 177.708C268.644 175.73 268.351 230.18 250.895 235.566C233.44 240.952 234.026 244.359 215.984 232.445C197.942 220.53 197.942 209.649 201.866 212.836C205.791 216.024 200.987 230.378 210.369 230.818C219.751 231.236 248.888 240.38 252.046 220.288C255.203 200.174 243.318 189.117 252.7 189.337C262.081 189.557 254.008 200.394 248.234 197.207C242.461 194.019 238.965 187.952 238.086 179.445C237.206 170.938 232.853 168.388 230.125 169.663C227.396 170.938 230.012 177.752 238.852 181.247C247.693 184.765 247.693 186.985 257.3 183.797C266.908 180.61 269.524 200.812 273.335 201.142C277.146 201.471 280.101 199.976 282.83 198.064C282.83 198.064 278.364 200.504 275.297 197.207C272.252 193.909 274.756 181.247 270.606 177.313C266.457 173.378 258.496 167.201 252.812 171.883C247.129 176.565 248.888 180.28 255.541 179.753C262.194 179.225 269.298 176.983 274.959 171.135C280.642 165.288 282.897 159.815 282.897 159.815C282.897 159.815 296.293 173.993 296.564 186.765C296.857 199.537 286.077 213.43 290.745 224.773C295.391 236.116 297.444 243.788 302.676 242.644C307.908 241.501 311.268 233.148 311.268 233.148C311.268 233.148 309.058 235.742 306.622 235.852C304.187 235.962 296.722 234.863 299.631 222.091C302.54 209.319 320.289 187.908 308.517 169.047C296.722 150.186 282.04 134.447 296.451 121.829C310.862 109.211 311.449 94.7465 309.983 81.557C308.517 68.3675 306.938 45.9674 290.768 32.7779C274.62 19.5885 271.553 25.128 274.914 29.3706C278.251 33.6352 277.101 47.2424 284.07 54.8923C291.061 62.5422 292.662 62.8279 293.091 68.3675C293.519 73.9071 290.317 84.9643 289.167 88.9211C287.994 92.8999 287.137 94.4607 286.979 96.8568C286.844 99.2749 287.408 100.264 283.055 102.396C278.702 104.529 277.079 106.089 276.808 109.629C276.515 113.168 276.334 118.07 278.838 124.027C281.341 129.984 270.877 133.633 270.877 133.633C270.877 133.633 268.509 137.151 268.87 139.701C269.23 142.251 270.651 143.328 266.908 144.141C263.164 144.954 262.578 144.141 262.758 145.702C262.938 147.263 263.66 150.274 261.969 151.153C260.277 152.033 257.03 150.802 256.376 153.286C255.722 155.77 254.414 163.178 251.392 164.958C248.37 166.739 245.934 170.036 237.071 165.486C228.185 160.958 206.851 148.23 199.792 136.733C192.733 125.236 189.53 121.279 189.959 114.619C190.387 107.958 197.672 114.201 194.041 120.444C190.41 126.687 187.501 128.665 184.433 122.994C181.389 117.322 172.368 104.265 174.533 84.1289C176.698 63.993 178.164 63.0038 185.448 63.1357C192.733 63.2676 240.882 59.8823 254.278 45.4178C267.674 30.9534 257.187 25.5677 252.542 32.646C247.896 39.7464 263.029 45.1321 271.756 40.164C280.484 35.196 283.687 37.1964 285.423 43.8571C287.16 50.5178 290.52 59.1789 276.537 59.1789C262.578 59.1789 257.481 61.3112 251.076 67.1145C244.671 72.9399 247.58 76.479 229.245 77.3364C210.91 78.1937 199.701 77.4682 200.446 71.6649C201.167 65.8395 219.796 61.7288 218.488 73.3575C217.18 84.9863 208.452 102.001 207.279 102.286C206.106 102.572 207.414 108.661 204.798 97.89C202.182 87.1186 198.551 77.6001 193.883 83.997C189.215 90.3939 191.064 104.705 195.913 95.2081C200.761 85.7117 201.303 82.3044 196.792 79.051C192.282 75.7976 183.554 87.4263 182.539 89.4047C181.524 91.3832 203.355 112.091 195.642 126.709C187.929 141.327 190.252 155.352 162.896 146.559C135.54 137.766 131.187 151.659 139.036 152.231C146.884 152.802 162.31 148.977 165.219 132.798C168.128 116.641 158.972 98.7693 166.098 94.7904C173.225 90.8116 199.701 71.6649 208.722 51.529C217.743 31.3931 266.637 39.0429 269.682 34.5145C272.726 29.9862 270.403 19.7643 246.25 5.29986C222.096 -9.16459 166.234 17.9178 162.287 47.704C158.34 77.4903 156.468 102.155 141.336 120.312C126.203 138.47 132.901 150.384 144.11 139.459C155.318 128.534 172.774 104.551 152.995 119.455C133.217 134.359 123.316 141.151 110.078 178.456C110.078 178.456 109.492 184.831 99.8845 182.852C90.2772 180.874 92.3295 179.159 92.3295 174.631C92.3295 170.102 74.8739 181.731 86.8042 187.403C98.7344 193.074 145.576 187.403 152.274 205.846C158.972 224.289 162.174 253.504 162.174 253.504C162.174 253.504 168.669 238.27 168.827 234.027C168.985 229.763 169.323 217.167 165.399 209.253C161.475 201.339 159.513 196.745 161.092 194.041C162.67 191.337 166.978 192.173 166.549 195.162C166.121 198.13 165.286 203.735 160.054 200.746C154.822 197.778 150.515 189.623 140.795 188.985C140.795 188.985 138.833 186.106 133.262 185.27C127.692 184.435 116.348 186.018 119.189 181.753C122.031 177.488 142.644 170.894 148.643 172.916C154.642 174.938 145.147 179.181 142.215 174.609C139.261 170.036 136.758 167.267 143.523 159.924C150.289 152.582 153.446 149.395 161.633 153.747C169.82 158.1 173.202 158.21 176.472 157.792C179.743 157.374 180.194 159.595 183.464 163.53C186.734 167.464 189.688 168.52 193.274 169.267C196.882 170.014 202.002 178.192 201.573 186.084C201.145 193.953 198.123 200.306 197.243 207.253C196.364 214.199 200.288 234.621 201.618 241.435C202.926 248.25 211.226 279.861 212.534 284.829C213.842 289.797 217.044 308.504 216.616 315.736C216.187 322.968 213.842 350.205 208.903 360.273C203.964 370.34 203.671 371.484 202.926 374.451C202.182 377.419 202.205 378.562 196.228 380.54C190.252 382.431 0 382.013 0 382.013" stroke="#FBF4EE" stroke-miterlimit="10"/>
</svg>
