<svg width="131" height="131" viewBox="0 0 131 131" fill="none" xmlns="http://www.w3.org/2000/svg">
<path fill-rule="evenodd" clip-rule="evenodd" d="M65.5001 127C99.4656 127 127 99.4655 127 65.5C127 31.5345 99.4656 4 65.5001 4C31.5345 4 4.00006 31.5345 4.00006 65.5C4.00006 99.4655 31.5345 127 65.5001 127ZM65.5001 128C100.018 128 128 100.018 128 65.5C128 30.9822 100.018 3 65.5001 3C30.9823 3 3.00006 30.9822 3.00006 65.5C3.00006 100.018 30.9823 128 65.5001 128Z" fill="#FBF4EE"/>
<path fill-rule="evenodd" clip-rule="evenodd" d="M50.6007 45.0281C45.3616 45.0281 39.0001 45.1963 39.0001 45.1963V85.7837H47.504V72.7407C47.504 72.7407 48.992 72.7225 50.6007 72.6566C70.8011 72.6751 72.128 43.9779 50.6007 45.0281ZM50.374 65.543C50.0436 65.5465 49.7592 65.5517 49.505 65.5564C48.7044 65.5711 48.2024 65.5803 47.5004 65.5137V51.4984C47.5004 51.4984 49.3028 51.4363 51.0504 51.4984C60.4861 51.9527 59.918 65.7825 50.374 65.543ZM82.8562 66.7877C79.1782 65.4967 78.0174 64.7424 78.0174 63.3168C78.0174 61.7705 79.3043 60.842 81.5711 60.842C84.1413 60.842 88.0313 62.5016 89.3804 63.2473V56.4078C87.5451 55.4793 84.7555 54.3388 81.264 54.3388C73.8532 54.3388 69.0747 58.6121 69.0747 64.3111C69.0126 67.8387 71.4 70.361 77.5897 72.4666C81.0812 73.6436 81.9988 75.2704 81.9988 76.8203C81.9988 78.3702 80.8362 79.3609 78.0174 79.3609C75.2607 79.3609 71.2172 77.7854 69.5025 76.7362V83.488C71.7692 84.7236 75.0524 85.897 78.0174 85.9884C86.6566 86.2589 91 81.7772 91 76.1404C90.9379 71.6806 88.5467 68.7851 82.8562 66.7877Z" fill="#FBF4EE"/>
<path fill-rule="evenodd" clip-rule="evenodd" d="M89.7295 11.1568C78.0089 5.9311 64.9129 4.63474 52.3953 7.46114C39.8776 10.2875 28.6092 17.0852 20.2711 26.84C11.9331 36.5949 6.97224 48.784 6.12872 61.589C5.28521 74.3941 8.60423 87.1286 15.5906 97.8929C22.577 108.657 32.8563 116.874 44.8951 121.318C56.9338 125.762 70.0867 126.195 82.3915 122.552C94.6963 118.909 105.493 111.385 113.172 101.103C120.851 90.8217 125 78.3328 125 65.5H131C131 79.6269 126.433 93.3751 117.98 104.694C109.526 116.012 97.6404 124.295 84.0948 128.305C70.5492 132.316 56.07 131.839 42.8173 126.947C29.5645 122.055 18.2487 113.009 10.5577 101.159C2.86684 89.3097 -0.786873 75.2909 0.1417 61.1947C1.07027 47.0984 6.53136 33.6801 15.7102 22.9416C24.8891 12.203 37.2938 4.71989 51.0738 1.60848C64.8537 -1.50294 79.2703 -0.075851 92.1728 5.67684L89.7295 11.1568Z" fill="#FBF4EE"/>
</svg>
