<svg width="113" height="113" viewBox="0 0 113 113" fill="none" xmlns="http://www.w3.org/2000/svg">
<path opacity="0.5" d="M61.4092 43.5119L61.5179 44.3857L62.2126 43.8447L93.5877 19.4123L69.1553 50.7874L68.6143 51.4821L69.4881 51.5908L108.95 56.5L69.4881 61.4092L68.6143 61.5179L69.1553 62.2126L93.5877 93.5877L62.2126 69.1553L61.5179 68.6143L61.4092 69.4881L56.5 108.95L51.5908 69.4881L51.4821 68.6143L50.7874 69.1553L19.4123 93.5877L43.8447 62.2126L44.3857 61.5179L43.5119 61.4092L4.05012 56.5L43.5119 51.5908L44.3857 51.4821L43.8447 50.7874L19.4123 19.4123L50.7874 43.8447L51.4821 44.3857L51.5908 43.5119L56.5 4.05012L61.4092 43.5119Z" stroke="#514D4D"/>
</svg>
