<svg width="71" height="71" viewBox="0 0 71 71" fill="none" xmlns="http://www.w3.org/2000/svg">
<path opacity="0.5" d="M38.4001 27.3623L38.5088 28.236L39.2035 27.6951L57.7384 13.2616L43.3049 31.7965L42.764 32.4912L43.6377 32.5999L66.9499 35.5L43.6377 38.4001L42.764 38.5088L43.3049 39.2035L57.7384 57.7384L39.2035 43.3049L38.5088 42.764L38.4001 43.6377L35.5 66.9499L32.5999 43.6377L32.4912 42.764L31.7965 43.3049L13.2616 57.7384L27.6951 39.2035L28.236 38.5088L27.3623 38.4001L4.05011 35.5L27.3623 32.5999L28.236 32.4912L27.6951 31.7965L13.2616 13.2616L31.7965 27.6951L32.4912 28.236L32.5999 27.3623L35.5 4.05011L38.4001 27.3623Z" stroke="#FBF4EE"/>
</svg>
