<svg width="128" height="128" viewBox="0 0 128 128" fill="none" xmlns="http://www.w3.org/2000/svg">
<path opacity="0.5" d="M69.6268 49.2797L69.7355 50.1534L70.4301 49.6124L106.391 21.609L78.3876 57.5699L77.8466 58.2645L78.7203 58.3732L123.95 64L78.7203 69.6268L77.8466 69.7355L78.3876 70.4301L106.391 106.391L70.4301 78.3876L69.7355 77.8466L69.6268 78.7203L64 123.95L58.3732 78.7203L58.2645 77.8466L57.5699 78.3876L21.609 106.391L49.6124 70.4301L50.1534 69.7355L49.2797 69.6268L4.05013 64L49.2797 58.3732L50.1534 58.2645L49.6124 57.5699L21.609 21.609L57.5699 49.6124L58.2645 50.1534L58.3732 49.2797L64 4.05013L69.6268 49.2797Z" stroke="#FBF4EE"/>
</svg>
