<svg width="65" height="65" viewBox="0 0 65 65" fill="none" xmlns="http://www.w3.org/2000/svg">
<path opacity="0.5" d="M35.1131 25.0552L35.2218 25.9289L35.9165 25.388L52.6171 12.3829L39.612 29.0835L39.0711 29.7782L39.9448 29.8869L60.9499 32.5L39.9448 35.1131L39.0711 35.2218L39.612 35.9165L52.6171 52.6171L35.9165 39.612L35.2218 39.0711L35.1131 39.9448L32.5 60.9499L29.8869 39.9448L29.7782 39.0711L29.0835 39.612L12.3829 52.6171L25.388 35.9165L25.9289 35.2218L25.0552 35.1131L4.05012 32.5L25.0552 29.8869L25.9289 29.7782L25.388 29.0835L12.3829 12.3829L29.0835 25.388L29.7782 25.9289L29.8869 25.0552L32.5 4.05012L35.1131 25.0552Z" stroke="#514D4D"/>
</svg>
