<svg width="82" height="82" viewBox="0 0 82 82" fill="none" xmlns="http://www.w3.org/2000/svg">
<path opacity="0.5" d="M44.4263 31.592L44.535 32.4657L45.2297 31.9247L67.1275 14.8725L50.0753 36.7703L49.5343 37.465L50.408 37.5737L77.9499 41L50.408 44.4263L49.5343 44.535L50.0753 45.2297L67.1275 67.1275L45.2297 50.0753L44.535 49.5343L44.4263 50.408L41 77.9499L37.5737 50.408L37.465 49.5343L36.7703 50.0753L14.8725 67.1275L31.9247 45.2297L32.4657 44.535L31.592 44.4263L4.05012 41L31.592 37.5737L32.4657 37.465L31.9247 36.7703L14.8725 14.8725L36.7703 31.9247L37.465 32.4657L37.5737 31.592L41 4.05012L44.4263 31.592Z" stroke="#FBF4EE"/>
</svg>
