<svg width="47" height="47" viewBox="0 0 47 47" fill="none" xmlns="http://www.w3.org/2000/svg">
<path d="M36.9231 14.0938L32.8486 33.6116C32.5412 34.9891 31.7396 35.332 30.6004 34.683L24.3923 30.0362L21.3967 32.9627C21.0652 33.2994 20.7879 33.581 20.149 33.581L20.595 27.1588L32.1012 16.5979C32.6015 16.1448 31.9927 15.8938 31.3237 16.3468L17.0992 25.4445L10.9754 23.4976C9.6434 23.0752 9.61929 22.1446 11.2527 21.4957L35.2053 12.1225C36.3143 11.7 37.2847 12.3735 36.9231 14.0938Z" fill="#976F46"/>
<path fill-rule="evenodd" clip-rule="evenodd" d="M35 4H12C7.58172 4 4 7.58172 4 12V35C4 39.4183 7.58172 43 12 43H35C39.4183 43 43 39.4183 43 35V12C43 7.58172 39.4183 4 35 4ZM12 0C5.37258 0 0 5.37258 0 12V35C0 41.6274 5.37258 47 12 47H35C41.6274 47 47 41.6274 47 35V12C47 5.37258 41.6274 0 35 0H12Z" fill="#976F46"/>
</svg>
