<svg width="131" height="131" viewBox="0 0 131 131" fill="none" xmlns="http://www.w3.org/2000/svg">
<path fill-rule="evenodd" clip-rule="evenodd" d="M65.5002 127C99.4657 127 127 99.4656 127 65.5001C127 31.5346 99.4657 4.00012 65.5002 4.00012C31.5347 4.00012 4.00018 31.5346 4.00018 65.5001C4.00018 99.4656 31.5347 127 65.5002 127ZM65.5002 128C100.018 128 128 100.018 128 65.5001C128 30.9823 100.018 3.00012 65.5002 3.00012C30.9824 3.00012 3.00018 30.9823 3.00018 65.5001C3.00018 100.018 30.9824 128 65.5002 128Z" fill="#FBF4EE"/>
<path fill-rule="evenodd" clip-rule="evenodd" d="M51.2809 69.9807L59.3013 86.4495H67.3102L55.9359 64.6745L66.6759 44H59.3278L51.7937 60.233L44.196 44.0393L36.3679 44.0393L47.0992 65.3427L36.0002 86.4102H43.5424L51.2809 69.9807ZM83.59 86.9998C86.9037 86.9998 90.3753 86.2923 93.689 84.7201L93.7426 84.6888C93.8509 84.6259 93.9183 84.5867 93.9568 84.5286C94.0204 84.4327 94.0056 84.2853 93.9665 83.8947C93.913 83.3604 93.8138 82.3709 93.8074 80.4358V44.0393H86.7854V54.8482C76.5176 54.0182 69.1934 60.1293 68.9148 71.0812C68.9148 81.7722 75.0294 87.0391 83.59 86.9998ZM86.7854 80.4752V61.0191C81.0165 59.3984 76.0813 63.2825 76.0551 70.7668C76.0223 78.0643 79.8544 82.267 86.7854 80.4752Z" fill="#FBF4EE"/>
<path fill-rule="evenodd" clip-rule="evenodd" d="M94.1219 13.3365C81.018 6.14649 65.6881 4.15176 51.1806 7.74895C36.6731 11.3461 24.0508 20.2717 15.824 32.7508C7.59709 45.2298 4.36827 60.348 6.77959 75.0991C9.19091 89.8501 17.0657 103.153 28.838 112.363C40.6103 121.573 55.4177 126.015 70.3155 124.805C85.2132 123.595 99.1101 116.823 109.242 105.835C119.375 94.8463 125 80.4469 125 65.5001H131C131 81.9542 124.807 97.8055 113.653 109.902C102.499 121.998 87.2011 129.454 70.801 130.785C54.4009 132.117 38.1004 127.227 25.141 117.089C12.1816 106.95 3.51266 92.3055 0.858181 76.067C-1.7963 59.8285 1.75812 43.1857 10.8146 29.4483C19.8711 15.7109 33.7661 5.88524 49.7366 1.92531C65.707 -2.03463 82.5829 0.161252 97.0081 8.07627C111.433 15.9913 122.351 29.0456 127.591 44.6432L121.903 46.5537C117.144 32.3849 107.226 20.5264 94.1219 13.3365Z" fill="#FBF4EE"/>
</svg>
